<svg width="22" height="22" fill="none" xmlns="http://www.w3.org/2000/svg"><path d="M11 0C8.013 0 7.637.013 6.464.066c-1.17.053-1.97.24-2.67.512a5.365 5.365 0 00-1.948 1.268 5.414 5.414 0 00-1.27 1.948c-.272.7-.457 1.499-.51 2.67C.012 7.637 0 8.014 0 10.999c0 2.989.013 3.363.066 4.536.053 1.17.238 1.971.51 2.67a5.383 5.383 0 001.27 1.948 5.385 5.385 0 001.948 1.27c.7.272 1.5.458 2.67.512C7.637 21.987 8.014 22 11 22c2.986 0 3.363-.013 4.536-.065 1.17-.054 1.97-.24 2.67-.512a5.381 5.381 0 001.948-1.27 5.381 5.381 0 001.27-1.948c.272-.699.457-1.499.51-2.67.054-1.173.066-1.547.066-4.536 0-2.987-.013-3.362-.066-4.535-.053-1.17-.238-1.97-.51-2.67a5.397 5.397 0 00-1.27-1.948A5.352 5.352 0 0018.206.578c-.7-.272-1.5-.46-2.67-.512C14.363.012 13.986 0 11 0zm0 1.983c2.938 0 3.284.01 4.445.063 1.073.05 1.655.228 2.043.378.513.2.88.438 1.265.824a3.4 3.4 0 01.824 1.265c.15.387.33.97.378 2.042.054 1.161.063 1.509.063 4.446 0 2.936-.01 3.286-.063 4.444-.049 1.073-.228 1.655-.378 2.044-.2.512-.438.88-.824 1.264a3.4 3.4 0 01-1.265.824c-.388.15-.97.33-2.043.378-1.16.054-1.508.065-4.445.065-2.937 0-3.286-.01-4.445-.065-1.073-.049-1.655-.228-2.043-.378a3.414 3.414 0 01-1.265-.824 3.393 3.393 0 01-.824-1.264c-.15-.389-.33-.97-.378-2.044-.054-1.158-.063-1.508-.063-4.444 0-2.937.01-3.285.063-4.446.049-1.073.228-1.654.378-2.042a3.4 3.4 0 01.824-1.265c.386-.386.75-.624 1.264-.824.389-.15.97-.329 2.044-.378 1.16-.052 1.508-.063 4.445-.063z" fill="#000"/><path d="M11 14.667a3.667 3.667 0 110-7.332 3.667 3.667 0 010 7.332zm0-9.315a5.649 5.649 0 100 11.298 5.649 5.649 0 000-11.299zm7.193-.223a1.321 1.321 0 11-2.642-.002 1.321 1.321 0 012.642.002z" fill="#000"/></svg>