<svg width="22" height="22" fill="none" xmlns="http://www.w3.org/2000/svg"><path d="M11 0C4.925 0 0 4.924 0 11c0 4.505 2.709 8.371 6.585 10.075-.031-.768-.007-1.692.19-2.527.212-.891 1.416-5.993 1.416-5.993s-.352-.703-.352-1.741c0-1.63.945-2.847 2.122-2.847 1 0 1.482.75 1.482 1.65 0 1.009-.64 2.51-.97 3.905-.276 1.167.585 2.12 1.736 2.12 2.085 0 3.487-2.678 3.487-5.85 0-2.41-1.623-4.215-4.577-4.215-3.336 0-5.416 2.488-5.416 5.266 0 .96.283 1.636.727 2.16.203.24.23.336.159.613-.055.201-.175.69-.225.882-.074.28-.3.378-.55.277-1.539-.628-2.255-2.312-2.255-4.205 0-3.124 2.636-6.87 7.863-6.87 4.201 0 6.964 3.039 6.964 6.3 0 4.316-2.4 7.541-5.935 7.541-1.188 0-2.305-.643-2.687-1.372 0 0-.64 2.534-.774 3.024-.233.847-.69 1.696-1.107 2.357.99.291 2.035.45 3.119.45C17.076 22 22 17.075 22 11c0-6.076-4.924-11-10.998-11H11z" fill="#000"/></svg>